# xmcd
#
# Track frame offsets:
#	150
#	12606
#	27845
#	47408
#	65192
#	87321
#	120400
#	141125
#	159860
#	174343
#	190496
#	216395
#	236993
#	254068
#
# Disc length: 3669 seconds
# Revision: 0
# Processed by: cddbd v1.5.2PL0 Copyright (c) Steve Scherf et al.
# Submitted via: dBpowerAMP V12.0
#
DISCID=cb0e530e
DTITLE=Big Mama Fitzgerald - Soul Doubt
DYEAR=2000
DGENRE=Blues
TTITLE0=The River
TTITLE1=You're A Big Girl Now
TTITLE2=One More Cup of Coffee
TTITLE3=Universal Mind
TTITLE4=Five to One
TTITLE5=Coney Island Baby
TTITLE6=Revolution Blues
TTITLE7=Kill Your Son
TTITLE8=Rock and Roll Heart
TTITLE9=I've Seen the Stuff
TTITLE10=Promised Land
TTITLE11=Kill Me
TTITLE12=The Final Cut
TTITLE13=Ruby's Arms
EXTD=
EXTT0=
EXTT1=
EXTT2=
EXTT3=
EXTT4=
EXTT5=
EXTT6=
EXTT7=
EXTT8=
EXTT9=
EXTT10=
EXTT11=
EXTT12=
EXTT13=
PLAYORDER=
